<svg width="769" height="770" viewBox="0 0 769 770" fill="none" xmlns="http://www.w3.org/2000/svg">
<path d="M384.5 0C436.568 0 486.195 10.3885 531.566 29.1629L532.255 29.4758C579.003 48.9386 621.12 77.4132 656.354 112.709C691.775 148.068 720.312 190.435 739.837 237.559C758.674 282.868 769 332.557 769 384.563C769 436.63 758.612 486.257 739.837 531.629L739.524 532.317C719.999 579.066 691.587 621.183 656.291 656.416C620.932 691.837 578.565 720.374 531.441 739.9C486.132 758.737 436.443 769.063 384.437 769.063C332.432 769.063 282.743 758.674 237.371 739.9L236.683 739.587C189.934 720.124 147.817 691.649 112.584 656.416L112.646 656.291C77.2254 620.87 48.6883 578.565 29.1629 531.566C10.3885 486.195 0 436.568 0 384.5C0 332.432 10.3885 282.805 29.1629 237.434L29.4758 236.745C48.9386 189.997 77.4132 147.88 112.646 112.646H112.709C148.13 77.2254 190.435 48.6883 237.496 29.1629C282.805 10.3885 332.432 0 384.5 0ZM106.326 591.206L107.828 590.33C144.751 569.741 240.876 562.92 280.803 535.071C283.744 530.69 286.873 524.307 289.94 517.36C294.508 506.909 298.701 495.457 301.329 487.697C290.19 474.555 280.615 459.723 271.478 445.141L241.251 397.016C230.237 380.495 224.479 365.475 224.104 353.084C223.916 347.264 224.917 342.007 227.108 337.314C229.361 332.432 232.803 328.365 237.496 325.235C239.687 323.733 242.127 322.482 244.818 321.543C242.816 295.447 242.127 262.591 243.379 235.056C244.005 228.547 245.319 221.976 247.071 215.468C254.831 187.869 274.169 165.653 298.138 150.383C311.342 141.935 325.861 135.614 340.943 131.358C350.581 128.605 332.745 97.9399 342.696 96.876C390.696 91.932 468.359 135.802 501.903 172.036C518.674 190.185 529.251 214.279 531.504 246.133L529.626 324.61C538.012 327.175 543.394 332.495 545.522 341.069C547.963 350.643 545.334 364.036 537.199 382.372C537.073 382.685 536.886 383.061 536.698 383.374L502.216 440.135C489.574 460.974 476.682 481.939 459.973 498.398C461.538 500.651 463.102 502.841 464.604 505.032C471.426 515.045 478.309 525.058 487.133 534.007C487.446 534.32 487.697 534.633 487.884 534.946C527.561 562.982 624.124 569.803 661.172 590.455L662.674 591.331C705.668 533.631 731.076 462.101 731.076 384.625C731.076 288.938 692.275 202.263 629.569 139.619C566.987 76.8499 480.312 38.0495 384.625 38.0495C288.938 38.0495 202.263 76.8499 139.619 139.556C76.7874 202.138 37.9869 288.813 37.9869 384.5C37.9869 461.976 63.3949 533.506 106.326 591.206Z" fill="#4C2997"/>
</svg>
